<svg xmlns="http://www.w3.org/2000/svg" width="345" height="324" viewBox="0 0 345 324">
  <defs>
    <linearGradient id="rfd-logo-a" x1="50.052%" x2="50.052%" y1="-204.86%" y2="170.025%">
      <stop offset="0%" stop-color="#EF5DE1"/>
      <stop offset="100%" stop-color="#B346A9"/>
    </linearGradient>
    <linearGradient id="rfd-logo-b" x1="19873%" x2="19873%" y1="-181%" y2="25195%">
      <stop offset="0%" stop-color="#EF5DE1"/>
      <stop offset="100%" stop-color="#B346A9"/>
    </linearGradient>
    <linearGradient id="rfd-logo-c" x1="11708%" x2="11708%" y1="-263%" y2="36480%">
      <stop offset="0%" stop-color="#EF5DE1"/>
      <stop offset="100%" stop-color="#B346A9"/>
    </linearGradient>
    <linearGradient id="rfd-logo-d" x1="22355%" x2="22355%" y1="-261%" y2="36336%">
      <stop offset="0%" stop-color="#EF5DE1"/>
      <stop offset="100%" stop-color="#B346A9"/>
    </linearGradient>
    <linearGradient id="rfd-logo-e" x1="22663%" x2="22663%" y1="-181%" y2="25195%">
      <stop offset="0%" stop-color="#EF5DE1"/>
      <stop offset="100%" stop-color="#B346A9"/>
    </linearGradient>
    <linearGradient id="rfd-logo-f" x1="14192%" x2="14192%" y1="-181%" y2="25195%">
      <stop offset="0%" stop-color="#EF5DE1"/>
      <stop offset="100%" stop-color="#B346A9"/>
    </linearGradient>
    <linearGradient id="rfd-logo-g" x1="17037%" x2="17037%" y1="-181%" y2="25195%">
      <stop offset="0%" stop-color="#EF5DE1"/>
      <stop offset="100%" stop-color="#B346A9"/>
    </linearGradient>
  </defs>
  <g fill="none" fill-rule="evenodd" transform="translate(2 2)">
    <path d="M107.85 187.32C101.2 175.8 95.2 164.18 89.92 152.64 81.68 165.64 75.57 179.08 73.19 192.86 87.4870864 197.134256 102.099079 200.273995 116.89 202.25 113.81 197.416667 110.796667 192.44 107.85 187.32zM283.16 186.91C308.42 176.6 322.85 163.54 322.85 150.91 322.85 135.99 302.07 120.09 267.26 109.27 264.78 117.52 261.83 125.95 258.45 134.5 270.16 151 279.35 168.39 283.16 186.91zM132.14 295.8C156.554855 306.099719 184.095145 306.099719 208.51 295.8 196.34 289.8 183.37 280.38 170.34 268.2 157.3 280.38 144.33 289.81 132.14 295.8zM232.78 187.32C229.88 192.353333 226.906667 197.266667 223.86 202.06 238.599265 200.039908 253.154961 196.853237 267.39 192.53 264.97 178.86 258.89 165.53 250.71 152.63 245.43 164.17 239.43 175.8 232.78 187.32zM182 256.59C198.1 271.65 213.79 281.87 227.16 285.39 251.935994 267.827468 267.194378 239.791618 268.49 209.45 249.928477 214.729261 230.927892 218.320529 211.72 220.18 202.660264 232.984039 192.73014 245.149444 182 256.59zM129.05 220.32C109.825242 218.524591 90.7995022 215.013948 72.2 209.83 73.6060647 240.022138 88.8359361 267.885168 113.49 285.37 126.43 281.93 142.2 271.89 158.66 256.55 147.979157 245.159364 138.086279 233.054703 129.05 220.32zM246.63 119.06C248.34 114.28 249.92 109.55 251.33 104.9 244.84 103.35 237.97 101.97 230.77 100.78 236.19 106.74 241.53 112.83 246.63 119.06zM255.59 88.91C256.78 83.77 257.78 78.73 258.52 73.85 262.83 45.49 258.82 25.49 247.52 18.97 234.21 11.29 209.13 22.38 182.52 47.34 190.39 57.77 201 69.06 213 81.74 227.33561 83.2151231 241.561597 85.6100591 255.59 88.91zM73.25 108.85C68.1233333 110.423333 63.2233333 112.116667 58.55 113.93 31.84 124.38 16.55 137.85 16.55 150.93 16.55 163.61 31.55 176.99 57.43 187.37 61.18 168.7 70.43 151.14 82.21 134.53 78.75 125.8 75.76 117.23 73.25 108.85zM158.12 47.35C131.38 22.23 106.61 11.17 93.1 19 80.1 26.48 76.76 52.71 85 88.62 99.0971079 85.3817244 113.385972 83.0436681 127.78 81.62 139.68 69 150.28 57.73 158.12 47.35zM110.11 100.53C102.91 101.67 95.93 103.03 89.24 104.59 90.6533333 109.29 92.2433333 114.113333 94.01 119.06 99.19 112.74 104.61 106.57 110.11 100.53zM135.52 97.44C123.68 110.01 111.52 123.17 101 136.86 107.193479 151.34162 114.259792 165.434172 122.16 179.06 127.27 187.91 132.64 196.44 138.16 204.55 148.22 205.34 158.73 205.77 169.65 205.77 180.84 205.77 191.84 205.32 202.51 204.44 208.03 196.34 213.343333 187.88 218.45 179.06 226.339106 165.426337 233.401834 151.330935 239.6 136.85 229.14 123.21 217 110.08 205.2 97.56 194 96.56 182.08 96 169.68 96 158 96 146.61 96.5 135.52 97.44zM150.76 221.87C157.19 230.19 163.76 237.87 170.32 244.93 177 237.84 183.57 230.1 189.96 221.81 183.293333 222.13 176.533333 222.29 169.68 222.29 163.32 222.29 157 222.14 150.76 221.87zM188.66 79.91C181.8 72.48 175.59 65.44 170.32 58.59 165.07 65.42 158.88 72.44 152.03 79.86 157.863333 79.6133333 163.746667 79.49 169.68 79.49 176.073333 79.49 182.4 79.63 188.66 79.91z"/>
    <path fill="#61DAFB" fill-rule="nonzero" d="M223.86 202.06C216.93 203.06 209.81 203.84 202.54 204.44 191.87 205.32 180.87 205.77 169.68 205.77 158.76 205.77 148.25 205.34 138.19 204.55 130.856667 203.97 123.756667 203.203333 116.89 202.25 102.099079 200.273995 87.4870864 197.134256 73.19 192.86 72.4686915 196.964272 72.1006766 201.12284 72.09 205.29 72.09 206.81 72.09 208.29 72.2 209.83 90.7995022 215.013948 109.825242 218.524591 129.05 220.32 136.16 221.02 143.41 221.54 150.76 221.87 157 222.14 163.32 222.29 169.68 222.29 176.506667 222.29 183.266667 222.13 189.96 221.81 197.333333 221.45 204.576667 220.906667 211.69 220.18 230.897892 218.320529 249.898477 214.729261 268.46 209.45 268.52 208.07 268.56 206.68 268.56 205.29 268.5458 201.010545 268.154284 196.740677 267.39 192.53 253.154961 196.853237 238.599265 200.039908 223.86 202.06zM58.55 113.93C63.2166667 112.11 68.1166667 110.416667 73.25 108.85 78.3833333 107.283333 83.7166667 105.863333 89.25 104.59 95.94 103.03 102.92 101.67 110.12 100.53 115.89 94.19 121.73 87.99 127.45 81.94L127.78 81.59C113.385972 83.0136681 99.0971079 85.3517244 85 88.59 79.48 89.89 74.1466667 91.3133333 69 92.86 63.26 94.59 57.76 96.48 52.54 98.52 18.66 111.8 0 130.39 0 150.89 0 171.39 18.66 190 52.53 203.23L55.59 204.4C55.6519062 198.66555 56.2579573 192.949919 57.4 187.33 31.53 177 16.52 163.57 16.52 150.89 16.52 137.85 31.84 124.38 58.55 113.93zM205.23 97.56L201.23 93.28C196.86 88.66 192.67 84.22 188.69 79.91 182.43 79.63 176.096667 79.49 169.69 79.49 163.756667 79.49 157.873333 79.6133333 152.04 79.86 148.04 84.18 143.85 88.64 139.47 93.27L135.53 97.44C146.61 96.5 158 96 169.68 96 182.08 96 194 96.56 205.23 97.56zM286.84 98.55C281.98 96.65 276.886667 94.8833333 271.56 93.25 266.433333 91.67 261.1 90.2233333 255.56 88.91 241.541461 85.6113242 227.325535 83.216395 213 81.74L213.19 81.94C218.99 88.07 224.91 94.35 230.76 100.78 237.96 101.97 244.83 103.35 251.32 104.9 254.36 105.62 257.32 106.38 260.2 107.18 262.613333 107.846667 264.963333 108.536667 267.25 109.25 302.06 120.07 322.84 135.97 322.84 150.89 322.84 163.54 308.41 176.6 283.15 186.89 284.30486 192.485731 284.934263 198.177142 285.03 203.89L286.83 203.21C320.7 189.96 339.36 171.37 339.36 150.87 339.36 130.37 320.71 111.8 286.84 98.55z"/>
    <path fill="#61DAFB" fill-rule="nonzero" d="M280.82 187.84C276.55 189.52 271.807451 191.135693 267.137451 192.585693 267.901735 196.796371 268.045615 201.091273 268.059814 205.370728 268.059814 206.760728 268.159814 208.199834 268.059814 209.579834 273.839814 207.889834 279.974619 205.84375 285.234619 203.84375 285.138882 198.130892 284.510329 192.405057 283.355469 186.809326L280.82 187.84zM72.3526611 205.43042C72.3591083 202.91405 73.087208 200.514474 73.3817139 198.002075 73.5749158 196.35389 73.2650401 194.583519 73.5507812 192.957642 67.9207813 191.237642 62.001582 189.178018 57.121582 187.218018 55.9795393 192.837937 55.3303388 198.59343 55.2684326 204.327881 60.5484326 206.327881 66.818877 208.279087 72.598877 209.939087 72.528877 208.429087 72.3526611 206.95042 72.3526611 205.43042z"/>
    <path fill="#137CC1" fill-rule="nonzero" d="M285 203.91C279.74 205.91 274.2 207.76 268.42 209.45 266.154135 261.930497 223.000912 303.340939 170.471621 303.442647 117.942331 303.544354 74.6290733 262.301329 72.16 209.83 66.38 208.17 60.83 206.36 55.55 204.4 55.55 204.69 55.55 204.99 55.55 205.29 56.1377332 268.249503 107.342754 318.978751 170.305 318.978751 233.267246 318.978751 284.472267 268.249503 285.06 205.29 285.08 204.83 285.05 204.37 285 203.91zM89.92 152.64C93.3 147.31 97 142.05 101 136.86 111.5 123.17 123.68 110.01 135.52 97.44L139.46 93.27C143.84 88.64 148.05 84.18 152.03 79.86 158.88 72.44 165.03 65.42 170.32 58.59 175.59 65.44 181.8 72.48 188.66 79.91 192.66 84.22 196.83 88.66 201.2 93.28L205.2 97.56C217 110.08 229.14 123.21 239.6 136.85 243.6 142.03 247.31 147.3 250.68 152.63 258.86 165.54 264.94 178.86 267.36 192.53 272.03 191.08 276.52 189.53 280.79 187.84L283.13 186.91C279.32 168.39 270.13 150.96 258.42 134.48 254.7 129.25 250.73 124.11 246.6 119.06 241.5 112.83 236.16 106.74 230.74 100.78 224.92 94.35 219 88.07 213.2 81.94L213.01 81.74C201.01 69.06 190.39 57.74 182.52 47.34 180.6 44.7866667 178.853333 42.2933333 177.28 39.86 175.779135 37.5126216 173.196015 36.0800617 170.41 36.05L170.22 36.05C167.438037 36.075765 164.857405 37.5052695 163.36 39.85 161.8 42.3 160.04 44.79 158.12 47.34 150.28 57.73 139.68 69 127.77 81.59L127.44 81.94C121.72 87.94 115.88 94.19 110.11 100.53 104.61 106.53 99.19 112.74 94.01 119.06 89.88 124.06 85.9 129.25 82.18 134.49 70.39 151.1 61.18 168.66 57.4 187.33 62.28 189.33 67.56 191.14 73.19 192.86 75.57 179.08 81.68 165.65 89.92 152.64z"/>
    <path fill="url(#rfd-logo-a)" fill-rule="nonzero" d="M122.16,179.06 C114.259792,165.434172 107.193479,151.34162 101,136.86 C97,142.05 93.3,147.31 89.92,152.64 C95.2,164.18 101.2,175.8 107.85,187.32 C110.79,192.406667 113.79,197.383333 116.85,202.25 C123.69,203.196667 130.79,203.963333 138.15,204.55 C132.64,196.44 127.27,187.91 122.16,179.06 Z"/>
    <path fill="url(#rfd-logo-b)" fill-rule="nonzero" d="M169.730469,267.604736 C182.730469,279.784736 196.34,289.81 208.51,295.79 C215.07653,293.01104 221.320161,289.523727 227.13,285.39 C213.76,281.87 197.189355,271.310488 181.089355,256.250488 C177.222689,260.350488 173.617135,263.971403 169.730469,267.604736 Z"/>
    <path fill="url(#rfd-logo-c)" fill-rule="nonzero" d="M85,88.62 C76.76,52.71 80.1,26.48 93.1,19 C106.61,11.2 131.38,22.26 158.1,47.38 C160.02,44.83 161.78,42.38 163.34,39.89 C164.837405,37.5452695 167.418037,36.115765 170.2,36.09 C156.53,23.09 142.97,13.26 130.46,7.22 C108,-3.68 93.24,-0.18 84.84,4.67 C67.09,14.92 60.32,40.37 65.78,76.33 C66.6,81.7 67.67,87.24 69,92.89 L73.26,108.89 C75.77,117.27 78.76,125.89 82.19,134.53 C85.91,129.29 89.89,124.15 94.02,119.1 C92.2466667,114.16 90.6566667,109.336667 89.25,104.63 L85,88.62 Z"/>
    <path fill="url(#rfd-logo-d)" fill-rule="nonzero" d="M271.56,93.25 C272.91,87.47 274.02,81.82 274.85,76.33 C280.31,40.33 273.54,14.92 255.79,4.67 C234.97,-7.33 204.08,4.1 170.41,36.05 C173.196015,36.0800617 175.779135,37.5126216 177.28,39.86 C178.846667,42.3 180.593333,44.7933333 182.52,47.34 C209.14,22.34 234.22,11.29 247.52,18.97 C258.81,25.49 262.82,45.49 258.52,73.85 C257.78,78.73 256.78,83.77 255.59,88.91 L251.33,104.91 C249.92,109.56 248.33,114.29 246.63,119.07 C250.76,124.07 254.73,129.26 258.45,134.49 C261.83,125.94 264.78,117.49 267.26,109.26 L271.56,93.25 Z"/>
    <path fill="url(#rfd-logo-e)" fill-rule="nonzero" d="M218.48,179.06 C213.386667,187.873333 208.073333,196.333333 202.54,204.44 C209.81,203.84 216.93,203.05 223.86,202.06 C226.9,197.26 229.873333,192.346667 232.78,187.32 C239.43,175.8 245.43,164.17 250.71,152.63 C247.34,147.3 243.61,142.03 239.63,136.85 C233.431834,151.330935 226.369106,165.426337 218.48,179.06 Z"/>
    <path fill="url(#rfd-logo-f)" fill-rule="nonzero" d="M159.47168,256.162842 C143.01168,271.502842 126.43,281.93 113.49,285.37 C119.311693,289.510089 125.564856,293.007166 132.14,295.8 C144.33,289.8 157.46,280.034238 170.5,267.844238 C166.613333,264.204238 163.37168,260.282842 159.47168,256.162842 Z"/>
    <path fill="url(#rfd-logo-g)" fill-rule="nonzero" d="M190,221.81 C183.61,230.1 177,237.81 170.36,244.93 C163.79,237.93 157.23,230.19 150.8,221.87 C143.45,221.54 136.2,221.02 129.09,220.32 C138.126279,233.054703 148.019157,245.159364 158.7,256.55 C162.593333,260.67 166.486667,264.55 170.38,268.19 C174.26,264.563333 178.136667,260.696667 182.01,256.59 C192.74014,245.149444 202.670264,232.984039 211.73,220.18 C204.576667,220.906667 197.333333,221.45 190,221.81 Z"/>
    <circle cx="169.68" cy="149.98" r="30.07" fill="#61DAFB" fill-rule="nonzero"/>
  </g>
</svg>
